<svg xmlns="http://www.w3.org/2000/svg" viewBox="0 0 278.06 53.87"><defs><style>.cls-1{fill:#fcdab7;}</style></defs><g id="Capa_2" data-name="Capa 2"><g id="Capa_1-2" data-name="Capa 1"><path class="cls-1" d="M32.35,24q10.15,1.69,10.16,12.37a13.42,13.42,0,0,1-1.22,5.47,12.59,12.59,0,0,1-3.83,4.79q-5.57,4.34-16.38,4.33-1.14,0-2.52-.09l-5.77-.3c-.75,0-1.51-.06-2.27-.06l-5.86.39Q1,50.85,1,48.15t4.36-2.71c.86,0,1.74,0,2.66.12V9.09l-1,.12a22.59,22.59,0,0,1-3.73.39,3.85,3.85,0,0,1-2.4-.71A2.21,2.21,0,0,1,0,7Q0,4.81,3.62,4.3C5.37,4.08,9.09,4,14.77,4a87.54,87.54,0,0,1,11.39.47,14.15,14.15,0,0,1,8.13,3.79,9.69,9.69,0,0,1,2.84,7A10.26,10.26,0,0,1,34.5,22.3,7.84,7.84,0,0,1,32.35,24ZM21.88,22.39q7.43,0,8.88-4.06a8.1,8.1,0,0,0,.48-2.79,6,6,0,0,0-2-4.51,9,9,0,0,0-5.4-2.26,61.57,61.57,0,0,0-6.28-.34q-2.91,0-4,.09V22.39ZM13.54,46.13q.75.09,1.71.15l1.94.06c1.08.06,2.67.09,4.78.09q14.78,0,14.77-10.71a7.52,7.52,0,0,0-3.29-6.63c-2.19-1.52-5.13-2.27-8.82-2.27H13.54Z"/><path class="cls-1" d="M88.41,6.31q0,2.48-3.74,2.48h-1V32.91a17.12,17.12,0,0,1-5.27,13,17.94,17.94,0,0,1-12.86,5A17.47,17.47,0,0,1,52.88,46q-5.07-4.89-5.07-13.23v-24H46.19a4.15,4.15,0,0,1-2.45-.66,2,2,0,0,1-.92-1.73,2.18,2.18,0,0,1,.79-1.75A3.14,3.14,0,0,1,45.72,4l5.44.2L55.82,4c1.5,0,2.32.48,2.48,1.46a6.5,6.5,0,0,1,.09,1.26c0,1.39-1,2.09-3.14,2.09H53.37V32.71q0,6.6,3.5,10a12.19,12.19,0,0,0,8.92,3.44,11.88,11.88,0,0,0,8.88-3.52q3.45-3.51,3.45-10V8.79H75.61c-1.85,0-2.78-.8-2.78-2.41S73.6,4,75.13,4h.51l4,.2L85.24,4c1.61,0,2.62.48,3,1.46A2.57,2.57,0,0,1,88.41,6.31Z"/><path class="cls-1" d="M94.87,3.89a83.65,83.65,0,0,0,13.46.83,72.71,72.71,0,0,0,12.88-.83v-.3a1.84,1.84,0,0,1,.67-1.5,2.47,2.47,0,0,1,1.59-.54,1.83,1.83,0,0,1,1.42.56,2.63,2.63,0,0,1,.66,1.24,21.25,21.25,0,0,0,.89,3.35L127,8.16c.2.52.43,1.07.69,1.66a4.65,4.65,0,0,1,.39,1.9,2,2,0,0,1-.62,1.58,2.12,2.12,0,0,1-1.51.57c-1.11,0-1.91-.67-2.4-2a5.19,5.19,0,0,0-1.74-2.66,6.72,6.72,0,0,0-3.45-.64h-.72L110.78,9V45.65h3.7a4.37,4.37,0,0,1,2.89.73,2.2,2.2,0,0,1,.82,1.69,2.3,2.3,0,0,1-.72,1.68,3.41,3.41,0,0,1-2.45.71H113.5l-.9,0-1.43-.08c-.66,0-1.68-.06-3.07-.06s-2.48,0-3.29.06-1.35.06-1.63.06l-.89.06h-1.53a3.26,3.26,0,0,1-2.13-.64,2.19,2.19,0,0,1,.13-3.48,4,4,0,0,1,2.45-.69h4V9l-3.29-.24-1.53-.11-1-.06-.78,0H96.79a4.47,4.47,0,0,0-2.47.64,4.23,4.23,0,0,0-1.57,2.18,5.2,5.2,0,0,1-1.14,2,2.31,2.31,0,0,1-2.94-.08,2,2,0,0,1-.61-1.58,4.65,4.65,0,0,1,.39-1.9c.25-.59.48-1.15.68-1.69l.51-1.43q.39-1.17.57-1.89l.33-1.4c.24-1.24.88-1.86,1.94-1.86a2.23,2.23,0,0,1,2.18,1.14,1.87,1.87,0,0,1,.21.9Z"/><path class="cls-1" d="M132.38,6.76l-.24-4.43C132.14.78,132.77,0,134,0c.82,0,1.73.65,2.72,1.94a26,26,0,0,0,8.55,6.46l20.93,10.4,7.86,3.71a18.79,18.79,0,0,1,4,2.26,3,3,0,0,1,1.12,2.4,3.37,3.37,0,0,1-1,2.47,15.14,15.14,0,0,1-4,2.41l-14,6.54Q143.56,47,142.57,47.53l-2,1.11a15.55,15.55,0,0,0-2.78,1.82,6.43,6.43,0,0,0-.81,1c-.94,1.57-1.77,2.36-2.51,2.36a2.06,2.06,0,0,1-2.33-2.33l.21-4.51L132.14,41a4.12,4.12,0,0,1,.6-2.39,2,2,0,0,1,1.79-.87q2.44,0,2.45,5.44v.66c0,.22,0,.44,0,.65a24.24,24.24,0,0,1,3-1.67l6.22-3.05-4.36-5.62A25.84,25.84,0,0,0,138.07,30c-1.08-.9-1.63-1.72-1.63-2.46a2.65,2.65,0,0,1,.54-1.75,10.33,10.33,0,0,1,1.14-1.15l1.43-1.25A10.74,10.74,0,0,0,140.9,22l3.44-4.6c.67-.94,1.4-1.89,2.18-2.87l-9.69-4.4V11a12.49,12.49,0,0,1-.52,4.25,2,2,0,0,1-2,1.31c-1.47,0-2.21-1-2.21-3ZM150.4,17c-3.38,4.4-5.34,6.87-5.86,7.38l-1.1,1.08a2.59,2.59,0,0,0-.87,1.56,2,2,0,0,0,.32,1.1,7,7,0,0,0,1,1.15,17.16,17.16,0,0,1,1.39,1.51l5.14,6.67L168,29.33c1.18-.54,2.07-1,2.66-1.27s.9-.59.9-.84-.21-.5-.64-.75-1.09-.57-2-1Z"/><path class="cls-1" d="M213.78,50.31a37,37,0,0,1-6.34.6q-10.78,0-17.53-6.37t-6.74-17.16q0-10.78,6.68-17.1T207.53,4A25.3,25.3,0,0,1,215,5a3,3,0,0,1-.18-1.12,1.66,1.66,0,0,1,.76-1.28A2.58,2.58,0,0,1,217.26,2a2.24,2.24,0,0,1,1.65.85,13.11,13.11,0,0,1,1.79,3.22,15.75,15.75,0,0,0,3,4.42l1.07,1.26a4.57,4.57,0,0,1,1.38,2.84c0,1.79-.75,2.69-2.24,2.69q-1.86,0-3.67-3a10.78,10.78,0,0,0-5.53-4.44,20.73,20.73,0,0,0-7.61-1.45q-8.13,0-13.1,5t-5,13.84q0,8.87,5.17,13.92a17.23,17.23,0,0,0,12.47,5q7.29,0,10.28-3A15.25,15.25,0,0,0,219,40.48l1-1.77c.9-1.71,1.79-2.68,2.69-2.9a5,5,0,0,1,1.23-.12,2,2,0,0,1,1.49.83,2.84,2.84,0,0,1,.72,1.93q0,1.9-2.44,4.55a22.08,22.08,0,0,0-3.29,4.32,9.9,9.9,0,0,0-1,3.59,2.48,2.48,0,0,1-2.75,2.54,2.78,2.78,0,0,1-2-.83,2.7,2.7,0,0,1-.87-2Z"/><path class="cls-1" d="M230.94,50.22l-4.42.24c-1.56,0-2.34-.63-2.34-1.88,0-.82.65-1.72,1.95-2.72a25.79,25.79,0,0,0,6.45-8.55L243,16.38l3.71-7.86a19.13,19.13,0,0,1,2.25-4,3,3,0,0,1,2.41-1.12,3.41,3.41,0,0,1,2.47,1,15.46,15.46,0,0,1,2.4,4l6.55,14Q271.18,39,271.72,40l1.1,2a15.37,15.37,0,0,0,1.83,2.78,6.82,6.82,0,0,0,1,.81c1.58.94,2.37,1.77,2.37,2.51a2.06,2.06,0,0,1-2.34,2.33l-4.51-.21-6.07.21a4.24,4.24,0,0,1-2.39-.59,2,2,0,0,1-.87-1.8c0-1.63,1.82-2.45,5.44-2.45H268l.66,0a22.25,22.25,0,0,1-1.68-3l-3-6.22-5.63,4.37a25.83,25.83,0,0,0-4.09,3.75c-.9,1.09-1.71,1.63-2.45,1.63a2.63,2.63,0,0,1-1.75-.54,9.54,9.54,0,0,1-1.15-1.14l-1.26-1.43a10.59,10.59,0,0,0-1.43-1.35l-4.61-3.43c-.93-.68-1.89-1.41-2.87-2.19l-4.39,9.69h.9a12.42,12.42,0,0,1,4.24.52,2,2,0,0,1,1.32,2c0,1.48-1,2.21-3.05,2.21Zm10.28-18q6.61,5.07,7.39,5.86l1.08,1.1a2.54,2.54,0,0,0,1.55.87,2.06,2.06,0,0,0,1.11-.31,7.17,7.17,0,0,0,1.15-1A17.16,17.16,0,0,1,255,37.31l6.66-5.14-8.16-17.61c-.54-1.18-1-2.06-1.27-2.66s-.59-.9-.84-.9-.49.22-.74.64a21,21,0,0,0-1,2Z"/></g></g></svg>