<svg xmlns="http://www.w3.org/2000/svg" viewBox="0 0 571.78 151.19"><defs><style>.cls-1{fill:#fff;}</style></defs><g id="Capa_2" data-name="Capa 2"><g id="Capa_1-2" data-name="Capa 1"><path class="cls-1" d="M102.07,44.62Q122.32,48,122.32,69.28a26.57,26.57,0,0,1-2.44,10.9,25,25,0,0,1-7.62,9.53q-11.08,8.64-32.65,8.64c-1.51,0-3.17-.06-5-.18l-11.5-.6c-1.51-.08-3-.12-4.52-.12l-11.68.78q-7.32,0-7.33-5.39t8.7-5.39c1.71,0,3.48.08,5.3.23V15l-1.9.24a44.49,44.49,0,0,1-7.42.77,7.71,7.71,0,0,1-4.8-1.4,4.43,4.43,0,0,1-1.84-3.72q0-4.41,7.21-5.42Q50.07,4.82,67,4.83t22.7,1q10.55,1.72,16.2,7.53a19.33,19.33,0,0,1,5.66,14,20.47,20.47,0,0,1-5.24,14.06A15.47,15.47,0,0,1,102.07,44.62Zm-20.85-3.1q14.77,0,17.69-8.1a16,16,0,0,0,1-5.54,12,12,0,0,0-4.05-9,17.83,17.83,0,0,0-10.76-4.49,122.36,122.36,0,0,0-12.51-.69q-5.8,0-8,.18V41.52ZM64.6,88.82c1,.11,2.13.21,3.4.29l3.87.12q3.21.18,9.53.18,29.43,0,29.43-21.32,0-8.7-6.56-13.23T86.7,50.33H64.6Z"/><path class="cls-1" d="M213.35,9.47q0,4.95-7.45,4.95h-2V62.49q0,15.78-10.51,25.82a35.73,35.73,0,0,1-25.61,10q-15.1,0-25.2-9.74t-10.1-26.36V14.42h-3.21a8.3,8.3,0,0,1-4.89-1.31,4.07,4.07,0,0,1-1.85-3.46,4.35,4.35,0,0,1,1.58-3.48,6.23,6.23,0,0,1,4.2-1.34l10.84.41,9.3-.41c3,0,4.62,1,4.94,2.91a12.89,12.89,0,0,1,.18,2.51q0,4.17-6.26,4.17h-3.75V62.07q0,13.17,7,20t17.78,6.85q10.82,0,17.69-7t6.88-19.87V14.42h-5q-5.53,0-5.54-4.8c0-3.2,1.53-4.79,4.59-4.79h1l8,.41L207,4.83c3.22,0,5.22,1,6,2.91A5.12,5.12,0,0,1,213.35,9.47Z"/><path class="cls-1" d="M226,4.65q9.48,1.66,26.81,1.66t25.67-1.66v-.6a3.62,3.62,0,0,1,1.34-3A4.93,4.93,0,0,1,282.94,0a3.68,3.68,0,0,1,2.83,1.1,5.36,5.36,0,0,1,1.31,2.47,41.84,41.84,0,0,0,1.79,6.68l1,2.91c.39,1,.85,2.14,1.37,3.31a9.36,9.36,0,0,1,.77,3.78,4.11,4.11,0,0,1-1.22,3.16,4.23,4.23,0,0,1-3,1.13q-3.33,0-4.79-4t-3.46-5.3q-2-1.28-6.88-1.28h-1.43l-13.58,1v73H265c2.74,0,4.65.49,5.75,1.46a4.42,4.42,0,0,1,1.63,3.37A4.56,4.56,0,0,1,271,96c-1,1-2.59,1.43-4.89,1.43H264.8l-1.73,0-1.78-.06c-.6,0-1.55-.07-2.86-.15s-3.35-.11-6.11-.11-4.94,0-6.55.11-2.69.12-3.25.12l-1.79.12h-3a6.52,6.52,0,0,1-4.26-1.28,4.15,4.15,0,0,1-1.58-3.42,4.2,4.2,0,0,1,1.85-3.52,8,8,0,0,1,4.88-1.37h8V14.77L240,14.3l-3-.21c-.79-.06-1.47-.1-2-.12l-1.55-.06c-.48,0-1.69,0-3.64,0a9,9,0,0,0-4.91,1.28,8.38,8.38,0,0,0-3.13,4.35,10.39,10.39,0,0,1-2.26,4,4.29,4.29,0,0,1-2.89,1,4.21,4.21,0,0,1-3-1.13,4.11,4.11,0,0,1-1.22-3.16,9.36,9.36,0,0,1,.77-3.78c.52-1.17,1-2.29,1.37-3.36l1-2.86c.51-1.55.89-2.8,1.13-3.76l.65-2.8Q218,0,221.2,0t4.34,2.26A3.73,3.73,0,0,1,226,4.05Z"/><path class="cls-1" d="M294.52,97l-8.82.47q-4.65,0-4.65-3.75c0-1.63,1.29-3.43,3.88-5.42q6.9-5.48,12.86-17l20.73-41.69,7.39-15.67a37.4,37.4,0,0,1,4.5-8,6,6,0,0,1,4.79-2.24,6.76,6.76,0,0,1,4.92,2q2,2,4.79,8l13,27.88q16.73,33.24,17.81,35.2l2.2,4a31.39,31.39,0,0,0,3.63,5.53,12.19,12.19,0,0,0,2.09,1.61q4.71,2.81,4.71,5,0,4.64-4.65,4.64l-9-.41-12.09.41a8.24,8.24,0,0,1-4.76-1.19,4,4,0,0,1-1.73-3.57q0-4.89,10.84-4.89h1.31c.44,0,.87,0,1.31-.06a44.78,44.78,0,0,1-3.33-5.89l-6.08-12.39L349,78.15a51.88,51.88,0,0,0-8.16,7.48c-1.79,2.16-3.42,3.25-4.88,3.25a5.24,5.24,0,0,1-3.49-1.08,18.85,18.85,0,0,1-2.29-2.26l-2.5-2.86A21.8,21.8,0,0,0,324.84,80l-9.18-6.85q-2.79-2-5.72-4.35l-8.75,19.3H303q5.85,0,8.46,1a3.91,3.91,0,0,1,2.62,4q0,4.41-6.07,4.41ZM315,61.06q13.15,10.13,14.71,11.67l2.15,2.21A5.12,5.12,0,0,0,335,76.66a3.91,3.91,0,0,0,2.21-.62,14.2,14.2,0,0,0,2.29-2,35.68,35.68,0,0,1,3-2.77L355.75,61,339.49,25.91c-1.07-2.34-1.92-4.11-2.53-5.3s-1.17-1.79-1.67-1.79-1,.43-1.49,1.28a43.38,43.38,0,0,0-1.93,4Z"/><path class="cls-1" d="M467.26,69.67a4,4,0,0,0-3-1.64,10.42,10.42,0,0,0-2.44.23q-2.67.66-5.36,5.78l-2,3.52a31.35,31.35,0,0,1-4.23,5.3q-6,6.08-20.49,6.07A34.24,34.24,0,0,1,405,78.87Q394.64,68.8,394.65,51.14t9.92-27.58q9.92-9.91,26.12-9.92a41.39,41.39,0,0,1,15.16,2.89,21.5,21.5,0,0,1,11,8.85q3.6,6,7.3,5.95c3,0,4.46-1.78,4.46-5.36,0-1.67-.91-3.55-2.74-5.66l-2.14-2.5A31.6,31.6,0,0,1,457.88,9a26.13,26.13,0,0,0-3.57-6.41A4.42,4.42,0,0,0,451,.89a5.18,5.18,0,0,0-3.28,1.22,3.38,3.38,0,0,0-1.51,2.57,6,6,0,0,0,.35,2.23,50.35,50.35,0,0,0-14.95-2.08q-21.92,0-35.23,12.56T383.09,51.47q0,21.5,13.44,34.19t34.93,12.69a74.58,74.58,0,0,0,12.63-1.19v.59s0,.09,0,.14a4.31,4.31,0,0,1,.53-.87,4.08,4.08,0,0,1,4-2.72c3.86,0,5.13,4,3.85,6.66a6.4,6.4,0,0,1-.2.62,5.07,5.07,0,0,1,.32,1.2c1.52-.75,2.4-2.21,2.61-4.43a19.54,19.54,0,0,1,2.06-7.15,42.5,42.5,0,0,1,6.55-8.61q4.85-5.27,4.85-9.08A5.62,5.62,0,0,0,467.26,69.67Z"/><path class="cls-1" d="M477.91,97l-8.82.47q-4.65,0-4.65-3.75c0-1.63,1.29-3.43,3.88-5.42q6.9-5.48,12.86-17l20.73-41.69,7.39-15.67a37.4,37.4,0,0,1,4.5-8,6,6,0,0,1,4.79-2.24,6.76,6.76,0,0,1,4.92,2q2,2,4.79,8l13.05,27.88q16.73,33.24,17.81,35.2l2.2,4A31.39,31.39,0,0,0,565,86.19a12.19,12.19,0,0,0,2.09,1.61c3.14,1.87,4.7,3.54,4.7,5,0,3.09-1.54,4.64-4.64,4.64l-9-.41-12.09.41a8.24,8.24,0,0,1-4.76-1.19,4,4,0,0,1-1.73-3.57q0-4.89,10.84-4.89h1.31c.44,0,.87,0,1.31-.06a44.78,44.78,0,0,1-3.33-5.89l-6.08-12.39-11.2,8.69a51.88,51.88,0,0,0-8.16,7.48c-1.79,2.16-3.42,3.25-4.88,3.25a5.24,5.24,0,0,1-3.49-1.08,18.85,18.85,0,0,1-2.29-2.26l-2.5-2.86A21.8,21.8,0,0,0,508.23,80l-9.18-6.85q-2.79-2-5.72-4.35l-8.75,19.3h1.78q5.85,0,8.46,1a3.91,3.91,0,0,1,2.62,4q0,4.41-6.07,4.41ZM498.4,61.06q13.16,10.13,14.71,11.67l2.15,2.21a5.12,5.12,0,0,0,3.09,1.72,3.91,3.91,0,0,0,2.21-.62,14.2,14.2,0,0,0,2.29-2,35.68,35.68,0,0,1,3-2.77L539.14,61,522.88,25.91c-1.07-2.34-1.92-4.11-2.53-5.3s-1.17-1.79-1.67-1.79-1,.43-1.49,1.28a43.38,43.38,0,0,0-1.93,4Z"/><path class="cls-1" d="M434.51,54.77a4.15,4.15,0,1,1-.68-5.84A4.18,4.18,0,0,1,434.51,54.77Z"/><path class="cls-1" d="M424.75,73.67a8.29,8.29,0,1,1-1.26-11.76A8.29,8.29,0,0,1,424.75,73.67Z"/><path class="cls-1" d="M454,70.3a8.29,8.29,0,1,1-1.16-11.55A8.27,8.27,0,0,1,454,70.3Z"/><path class="cls-1" d="M450.65,41.17a8.3,8.3,0,1,1-1.26-11.67A8.29,8.29,0,0,1,450.65,41.17Z"/><path class="cls-1" d="M421.5,44.46a8.29,8.29,0,1,1-1.32-11.7A8.29,8.29,0,0,1,421.5,44.46Z"/><path class="cls-1" d="M441,103.13l-.17.2.14-.16Z"/><path class="cls-1" d="M449,92a6.1,6.1,0,0,0-6,6,4.78,4.78,0,0,0,0,.66v0c-.06.29-.13.57-.14.62-.1.41-.21.82-.34,1.22l-.11.3c-.4.62-.68,1.34-1.09,2l-.25.35.23-.26-.26.3c-.17.22-.26.3-.14.16-.19.22-.38.45-.58.66-.63.67-1.32,1.25-2,1.88l-.08.07c-.5.34-1,.7-1.47,1a41.59,41.59,0,0,1-5.54,3l-.48.22h0l-1.6.62c-1.11.41-2.23.8-3.36,1.15-2.45.78-4.94,1.43-7.45,2s-5.32,1.11-8,1.55c-1.22.2-2.45.38-3.68.55l-1,.13-2.29.27a254,254,0,0,1-31.68,1.38c-13.65-.2-27.26-1.42-40.91-1.59a392.55,392.55,0,0,0-56.31,3.1c-18.79,2.48-37.36,6.2-56,9.66-36.72,6.82-73.77,10.72-111.15,10.16-17.71-.26-35.91-.73-53.17-5.11-14.51-3.69-27.86-10.3-37.58-22a51,51,0,0,1-5.39-8.29,6.07,6.07,0,0,0-8.21-2.16,6.11,6.11,0,0,0-2.15,8.21c7.32,14,20.34,24.33,34.67,30.49,17.19,7.38,35.91,9.33,54.43,10.25a538.87,538.87,0,0,0,116.45-7.3c18.86-3.19,37.58-7.18,56.46-10.22a382.87,382.87,0,0,1,57.07-4.85c26.5-.28,52.89,3,79.37.63,11.06-1,22.39-2.56,32.85-6.41,9.06-3.34,18.09-8.51,21.69-18A21.24,21.24,0,0,0,455,98C455.13,94.74,452.1,92,449,92ZM11.53,112.26l-3,2a1.64,1.64,0,0,1-2.27-.45l-2.83-4.23a1.63,1.63,0,0,1,.44-2.26l3-2a1.63,1.63,0,0,1,2.26.45L12,110A1.64,1.64,0,0,1,11.53,112.26ZM29,128.19,26.8,131a1.63,1.63,0,0,1-2.29.27l-8-6.32a1.63,1.63,0,0,1-.27-2.29l2.23-2.82a1.63,1.63,0,0,1,2.29-.26l8,6.31A1.63,1.63,0,0,1,29,128.19Zm22.52,10-1.31,3.34a1.63,1.63,0,0,1-2.12.92l-9.46-3.72a1.64,1.64,0,0,1-.93-2.11l1.32-3.35a1.63,1.63,0,0,1,2.12-.92l9.46,3.72A1.63,1.63,0,0,1,51.56,138.22Zm26.68,7.45a1.63,1.63,0,0,1-1.74,1.52l-10.15-.68a1.62,1.62,0,0,1-1.52-1.73l.24-3.59a1.63,1.63,0,0,1,1.74-1.52l10.15.68a1.63,1.63,0,0,1,1.51,1.73Zm29.13.56a1.63,1.63,0,0,1-1.63,1.63H95.57a1.63,1.63,0,0,1-1.63-1.63v-3.6A1.63,1.63,0,0,1,95.57,141h10.17a1.63,1.63,0,0,1,1.63,1.63Zm25,0a1.63,1.63,0,0,1-1.63,1.63H120.57a1.63,1.63,0,0,1-1.63-1.63v-3.6a1.63,1.63,0,0,1,1.63-1.63h10.17a1.63,1.63,0,0,1,1.63,1.63Zm25.58.3-10.16.64a1.62,1.62,0,0,1-1.73-1.52l-.22-3.59a1.62,1.62,0,0,1,1.52-1.73l10.15-.64a1.63,1.63,0,0,1,1.73,1.52l.23,3.59A1.63,1.63,0,0,1,158,146.53Zm27.14-2.23L175,145.38a1.62,1.62,0,0,1-1.79-1.44l-.43-4a1.63,1.63,0,0,1,1.45-1.8l10.11-1.08a1.62,1.62,0,0,1,1.79,1.44l.43,4A1.63,1.63,0,0,1,185.09,144.3Zm25.22-4.44-10,1.88a1.64,1.64,0,0,1-1.91-1.3l-.74-3.93a1.64,1.64,0,0,1,1.3-1.91l10-1.88a1.63,1.63,0,0,1,1.9,1.3l.74,3.93A1.63,1.63,0,0,1,210.31,139.86Zm25-4-10,1.88a1.64,1.64,0,0,1-1.91-1.3l-.74-3.93a1.64,1.64,0,0,1,1.3-1.91l10-1.88a1.63,1.63,0,0,1,1.9,1.3l.74,3.93A1.63,1.63,0,0,1,235.31,135.86Zm26-5-10,1.88a1.64,1.64,0,0,1-1.91-1.3l-.74-3.93a1.64,1.64,0,0,1,1.3-1.91l10-1.88a1.63,1.63,0,0,1,1.9,1.3l.74,3.93A1.63,1.63,0,0,1,261.31,130.86Zm24.77-3.55L276,128.37a1.63,1.63,0,0,1-1.79-1.45l-.42-4a1.63,1.63,0,0,1,1.46-1.79l10.11-1.06a1.63,1.63,0,0,1,1.79,1.45l.42,4A1.63,1.63,0,0,1,286.08,127.31Zm25.81-1.69-10.16.48a1.62,1.62,0,0,1-1.7-1.55l-.19-4a1.62,1.62,0,0,1,1.55-1.7l10.16-.49a1.62,1.62,0,0,1,1.7,1.55l.19,4A1.63,1.63,0,0,1,311.89,125.62Zm28.47-1.39a1.63,1.63,0,0,1-1.63,1.63H328.55a1.63,1.63,0,0,1-1.63-1.63v-4a1.63,1.63,0,0,1,1.63-1.63h10.18a1.63,1.63,0,0,1,1.63,1.63Zm24.9,1.3a1.63,1.63,0,0,1-1.7,1.55l-10.16-.45a1.63,1.63,0,0,1-1.56-1.7l.18-4a1.63,1.63,0,0,1,1.7-1.56l10.16.45a1.63,1.63,0,0,1,1.56,1.7Zm26.1-.3a1.63,1.63,0,0,1-1.63,1.63H379.55a1.63,1.63,0,0,1-1.63-1.63v-4a1.63,1.63,0,0,1,1.63-1.63h10.18a1.63,1.63,0,0,1,1.63,1.63Zm24-1.39-10,1.91a1.63,1.63,0,0,1-1.91-1.29l-.75-3.93a1.63,1.63,0,0,1,1.29-1.91l10-1.91a1.63,1.63,0,0,1,1.91,1.29l.75,3.93A1.63,1.63,0,0,1,415.32,123.84Zm23.46-6.63-8.67,3.18a1.63,1.63,0,0,1-2.09-1l-1.37-3.76a1.63,1.63,0,0,1,1-2.09l8.67-3.17a1.63,1.63,0,0,1,2.09,1l1.37,3.75A1.62,1.62,0,0,1,438.78,117.21ZM443,98.56c0-.27,0-.56.07-.53A1.82,1.82,0,0,1,443,98.56Zm9.47.52-1.33,6.12a1.63,1.63,0,0,1-1.94,1.25l-3.91-.85a1.63,1.63,0,0,1-1.25-1.94l1.33-6.12a1.63,1.63,0,0,1,1.94-1.25l3.91.85A1.63,1.63,0,0,1,452.43,99.08Z"/></g></g></svg>